<svg width="35" height="35" viewBox="0 0 35 35" fill="none" xmlns="http://www.w3.org/2000/svg">
<path d="M17.5 21.875C19.9163 21.875 21.875 19.9162 21.875 17.5C21.875 15.0837 19.9163 13.125 17.5 13.125C15.0838 13.125 13.125 15.0837 13.125 17.5C13.125 19.9162 15.0838 21.875 17.5 21.875Z" stroke="white" stroke-width="1.5" stroke-miterlimit="10" stroke-linecap="round" stroke-linejoin="round"/>
<path d="M2.91669 18.7833V16.2167C2.91669 14.7 4.15627 13.4458 5.68752 13.4458C8.3271 13.4458 9.40627 11.5792 8.07919 9.28957C7.32085 7.97707 7.77294 6.27082 9.10002 5.51249L11.6229 4.06874C12.775 3.38332 14.2625 3.79166 14.9479 4.94374L15.1084 5.22082C16.4209 7.51041 18.5792 7.51041 19.9063 5.22082L20.0667 4.94374C20.7521 3.79166 22.2396 3.38332 23.3917 4.06874L25.9146 5.51249C27.2417 6.27082 27.6938 7.97707 26.9354 9.28957C25.6084 11.5792 26.6875 13.4458 29.3271 13.4458C30.8438 13.4458 32.0979 14.6854 32.0979 16.2167V18.7833C32.0979 20.3 30.8584 21.5542 29.3271 21.5542C26.6875 21.5542 25.6084 23.4208 26.9354 25.7104C27.6938 27.0375 27.2417 28.7292 25.9146 29.4875L23.3917 30.9312C22.2396 31.6167 20.7521 31.2083 20.0667 30.0562L19.9063 29.7792C18.5938 27.4896 16.4354 27.4896 15.1084 29.7792L14.9479 30.0562C14.2625 31.2083 12.775 31.6167 11.6229 30.9312L9.10002 29.4875C7.77294 28.7292 7.32085 27.0229 8.07919 25.7104C9.40627 23.4208 8.3271 21.5542 5.68752 21.5542C4.15627 21.5542 2.91669 20.3 2.91669 18.7833Z" stroke="white" stroke-width="1.5" stroke-miterlimit="10" stroke-linecap="round" stroke-linejoin="round"/>
</svg>
